<svg xmlns="http://www.w3.org/2000/svg" id="Layer_1" data-name="Layer 1" viewBox="0 0 514 144"><path d="M146.36 3v64.86a5.77 5.77 0 0 1-1 3.54c-10.26 11.91-20.62 23.74-31.68 36.4-.3-8.35-1.64-15.56 5.3-21.13 3.27-2.63 5.52-6.49 8.53-9.49 5.85-5.82 10-12 9.37-21-.7-9.86-.16-19.82-.16-31.23-5.54 5.07-10.27 9.25-14.78 13.66-.65.64-.37 2.37-.3 3.59.75 13.69-4 25-14.55 33.83a8.19 8.19 0 0 0-2.52 5.47c-.23 9.78.08 19.58-.18 29.36a12.65 12.65 0 0 1-2.54 7.16c-5.94 7.31-12.27 14.3-18.84 21.84-7-8.13-13.81-15.78-20.34-23.63-1-1.15-1.06-3.23-1.07-4.89-.07-10.1.13-20.21-.1-30.31a8.37 8.37 0 0 0-2.56-5.5c-10-8.69-14.68-19.41-14-32.66a9.08 9.08 0 0 0-2.47-6c-3.79-3.89-8-7.34-13-11.75-.13 2.7-.27 4.2-.26 5.7.11 10.89.14 21.78.48 32.66a10.35 10.35 0 0 0 2.26 5.85c5.2 6.33 10.46 12.67 16.19 18.52 3.5 3.58 5 7.34 4.47 12.19-.23 2.16 0 4.36 0 7.79-5.09-5.77-9.51-10.75-13.9-15.75-5.53-6.28-11.1-12.52-16.51-18.9-1.15-1.36-2.37-3.25-2.38-4.9-.16-21.3-.11-42.6-.11-65 5 4.35 9.47 8.15 13.83 12.07 6.69 6 13.41 12 19.86 18.26a7.26 7.26 0 0 1 1.83 5.62c-2.68 13.6 2.37 23.63 13.39 31.36a7.38 7.38 0 0 1 2.78 5.1c.21 9.94.21 19.9-.14 29.83a13 13 0 0 0 4.08 10.52c2.59 2.51 4.82 5.39 7.64 8.61 5.7-6.83 13.31-11.77 12-22.63-1.07-8.55-.46-17.34-.22-26a7.31 7.31 0 0 1 2.78-5.13c11.86-7.93 16.29-18.23 13.75-32.6-.22-1.23-.18-3.12.56-3.81C123 24.14 134.27 13.94 146.36 3ZM259.86 82.28h-13.58l-16.52-48.67-18 48.67h-13.6l-24.25-68.36h16.41l15.08 46.95 17.23-46.95H237l16.12 46.95 16.19-46.95h14.84ZM347.61 82.28h-15l-6.17-14.81H297l-6.13 14.81h-15L305 13.92h13.51Zm-27.23-29.44-8.64-20.91-8.67 20.91ZM413.39 82.28H397.3L386 60.07h-17.22v22.21h-14V13.92h35.33a19.53 19.53 0 0 1 10.87 3 19.74 19.74 0 0 1 7.11 8.2A27.2 27.2 0 0 1 410.56 37a25.91 25.91 0 0 1-2.92 12.49 18.57 18.57 0 0 1-7.33 7.83Zm-23.32-36.85a5.76 5.76 0 0 0 4.64-2.19 9.53 9.53 0 0 0 1.81-6.24 9.13 9.13 0 0 0-2-6.27 5.88 5.88 0 0 0-4.49-2.19h-21.25v16.89ZM492.5 82.28h-19.7l-16.63-21.45-16.59 21.45h-19.74l26.62-34-26.62-34.36h19.35l17.05 21.88 17.13-21.88h19.13L466 48.25ZM171.07 140.94h-2.13v-22.37a17.79 17.79 0 0 1 2.42-.62 19.21 19.21 0 0 1 3.73-.3 9.12 9.12 0 0 1 3.38.61 7.27 7.27 0 0 1 2.62 1.75 7.88 7.88 0 0 1 1.7 2.78 10.65 10.65 0 0 1 .61 3.69 11.76 11.76 0 0 1-.51 3.55 7.81 7.81 0 0 1-1.49 2.78 6.89 6.89 0 0 1-2.4 1.82 7.81 7.81 0 0 1-3.26.65 8.14 8.14 0 0 1-2.89-.47 7.76 7.76 0 0 1-1.78-.9Zm0-9.09a8.3 8.3 0 0 0 .73.49 7.64 7.64 0 0 0 1 .49 8 8 0 0 0 1.28.37 6.76 6.76 0 0 0 1.44.15 5.79 5.79 0 0 0 2.63-.54 4.64 4.64 0 0 0 1.72-1.47 6.41 6.41 0 0 0 .95-2.19 12.07 12.07 0 0 0 .29-2.67 7.2 7.2 0 0 0-1.67-5.11 5.75 5.75 0 0 0-4.41-1.79 17.28 17.28 0 0 0-2.54.15 9.61 9.61 0 0 0-1.45.31ZM193.76 117.65a11.32 11.32 0 0 1 2 .17 6.9 6.9 0 0 1 1.29.32l-.42 1.84a4.74 4.74 0 0 0-1.07-.28 11.78 11.78 0 0 0-2.1-.15 10 10 0 0 0-2.21.2 7.07 7.07 0 0 0-1.1.32v14.82H188v-16.12a15.14 15.14 0 0 1 2.25-.74 14.07 14.07 0 0 1 3.51-.38ZM214.66 126.45a11 11 0 0 1-.57 3.63 8.17 8.17 0 0 1-1.61 2.78 7.25 7.25 0 0 1-2.43 1.78 7.88 7.88 0 0 1-6.22 0 7.25 7.25 0 0 1-2.43-1.78 8 8 0 0 1-1.6-2.78 11.65 11.65 0 0 1 0-7.26 8.13 8.13 0 0 1 1.6-2.79 7 7 0 0 1 2.43-1.8 7.88 7.88 0 0 1 6.22 0 7 7 0 0 1 2.43 1.8 8.31 8.31 0 0 1 1.61 2.79 11 11 0 0 1 .57 3.63Zm-2.26 0a8 8 0 0 0-1.47-5 5.17 5.17 0 0 0-8 0 9.39 9.39 0 0 0 0 10.09 5.21 5.21 0 0 0 8 0 8 8 0 0 0 1.47-5.09ZM221.26 118H228v1.8h-6.74v9a8.84 8.84 0 0 0 .25 2.34 3.3 3.3 0 0 0 .7 1.39 2.18 2.18 0 0 0 1.11.65 5.92 5.92 0 0 0 1.44.17 6.42 6.42 0 0 0 2.16-.31 8.85 8.85 0 0 0 1.27-.58l.53 1.77a7.6 7.6 0 0 1-1.6.67 8 8 0 0 1-2.49.38 7.41 7.41 0 0 1-2.63-.41 3.79 3.79 0 0 1-1.7-1.24 5 5 0 0 1-.9-2.08 14.08 14.08 0 0 1-.26-2.94V113l2.12-.39ZM230.91 126.42a10.66 10.66 0 0 1 .64-3.88 8.53 8.53 0 0 1 1.66-2.76 6.57 6.57 0 0 1 2.36-1.65 7.14 7.14 0 0 1 2.73-.54 6.37 6.37 0 0 1 4.95 2q1.84 2 1.85 6.24v1.02h-11.94a7.48 7.48 0 0 0 1.54 4.77 5.75 5.75 0 0 0 4.58 1.67A9.19 9.19 0 0 0 242 133a11.12 11.12 0 0 0 1.47-.56l.39 1.84a9.36 9.36 0 0 1-1.72.62 10.8 10.8 0 0 1-3 .36 9.78 9.78 0 0 1-3.79-.66 6.59 6.59 0 0 1-2.58-1.83 7.12 7.12 0 0 1-1.47-2.79 12.87 12.87 0 0 1-.39-3.56Zm12-1.34a6.71 6.71 0 0 0-1.24-4.12 4 4 0 0 0-3.34-1.47 4.5 4.5 0 0 0-2 .45 5.23 5.23 0 0 0-1.57 1.23 5.66 5.66 0 0 0-1.05 1.78 7.28 7.28 0 0 0-.44 2.13ZM256.84 135.25a9.1 9.1 0 0 1-3.47-.62 6.51 6.51 0 0 1-2.5-1.79 8 8 0 0 1-1.52-2.78 12.53 12.53 0 0 1 0-7.21 8.15 8.15 0 0 1 1.55-2.81 6.78 6.78 0 0 1 2.45-1.81 7.84 7.84 0 0 1 3.24-.64 13.14 13.14 0 0 1 2.57.23 6.49 6.49 0 0 1 1.85.59l-.56 1.83a7.47 7.47 0 0 0-1.47-.53 9.92 9.92 0 0 0-2.19-.19 5.14 5.14 0 0 0-4.27 1.81 8.06 8.06 0 0 0-1.46 5.15 10.9 10.9 0 0 0 .33 2.77 5.49 5.49 0 0 0 1.06 2.15 5 5 0 0 0 1.9 1.41 7 7 0 0 0 2.83.51 7.57 7.57 0 0 0 2.3-.31 9.43 9.43 0 0 0 1.36-.54l.46 1.83a8 8 0 0 1-1.85.64 11.34 11.34 0 0 1-2.61.31ZM266.88 118h6.73v1.8h-6.73v9a9.34 9.34 0 0 0 .24 2.34 3.3 3.3 0 0 0 .71 1.39 2.1 2.1 0 0 0 1.11.65 5.8 5.8 0 0 0 1.44.17 6.32 6.32 0 0 0 2.15-.31 9.05 9.05 0 0 0 1.28-.58l.52 1.77a7.37 7.37 0 0 1-1.6.67 7.91 7.91 0 0 1-2.48.38 7.47 7.47 0 0 1-2.64-.41 3.9 3.9 0 0 1-1.7-1.24 5.28 5.28 0 0 1-.9-2.08 14.79 14.79 0 0 1-.26-2.94V113l2.13-.39ZM280.16 112.88a1.59 1.59 0 0 1-.46 1.19 1.61 1.61 0 0 1-2.23 0 1.8 1.8 0 0 1 0-2.38 1.61 1.61 0 0 1 2.23 0 1.59 1.59 0 0 1 .46 1.19Zm-.49 22h-2.13V118h2.13ZM285.29 118.57c.63-.17 1.48-.37 2.55-.59a19.78 19.78 0 0 1 3.92-.33 8.15 8.15 0 0 1 3.22.56 4.92 4.92 0 0 1 2.02 1.59 6.37 6.37 0 0 1 1.1 2.46 14.25 14.25 0 0 1 .33 3.18v9.45h-2.13v-8.77a16.42 16.42 0 0 0-.24-3 5.24 5.24 0 0 0-.82-2 3.2 3.2 0 0 0-1.51-1.12 6.77 6.77 0 0 0-2.33-.35 17.59 17.59 0 0 0-2.6.17 8.94 8.94 0 0 0-1.43.29v14.85h-2.12ZM314.91 132.93a3.48 3.48 0 0 1-.58.37 10.36 10.36 0 0 1-1 .44 7 7 0 0 1-1.31.38 8.28 8.28 0 0 1-1.65.15 9 9 0 0 1-2.84-.46 6.49 6.49 0 0 1-2.41-1.44 7.17 7.17 0 0 1-1.65-2.54 10.22 10.22 0 0 1-.62-3.77 9.8 9.8 0 0 1 .56-3.34 8 8 0 0 1 1.58-2.66 7.23 7.23 0 0 1 2.52-1.77 8.51 8.51 0 0 1 3.35-.64 19 19 0 0 1 3.78.31c.95.21 1.73.41 2.34.61V134c0 2.53-.66 4.34-2 5.42s-3.29 1.62-5.92 1.62a16.6 16.6 0 0 1-3-.25 15.76 15.76 0 0 1-2.28-.57l.43-1.93a10 10 0 0 0 2.14.62 14.84 14.84 0 0 0 2.73.26 6.7 6.7 0 0 0 4.37-1.16c.9-.77 1.35-2.1 1.35-4Zm0-12.89a12.76 12.76 0 0 0-1.44-.31 15.9 15.9 0 0 0-2.52-.15 5.86 5.86 0 0 0-2.43.48 5 5 0 0 0-1.82 1.34 5.89 5.89 0 0 0-1.14 2.06 8.39 8.39 0 0 0-.39 2.63 8.1 8.1 0 0 0 .45 2.86 5.67 5.67 0 0 0 1.2 2 4.35 4.35 0 0 0 1.68 1.09 5.66 5.66 0 0 0 1.93.35 7.6 7.6 0 0 0 2.63-.43 5.77 5.77 0 0 0 1.85-1ZM332.7 112.88a1.55 1.55 0 0 1-.46 1.19 1.51 1.51 0 0 1-1.11.45 1.54 1.54 0 0 1-1.11-.45 1.77 1.77 0 0 1 0-2.38 1.54 1.54 0 0 1 1.11-.45 1.51 1.51 0 0 1 1.11.45 1.55 1.55 0 0 1 .46 1.19Zm-.49 22h-2.12V118h2.12ZM337.84 118.57c.63-.17 1.48-.37 2.55-.59a19.78 19.78 0 0 1 3.92-.33 8.15 8.15 0 0 1 3.22.56 4.92 4.92 0 0 1 2.06 1.59 6.52 6.52 0 0 1 1.1 2.46 14.27 14.27 0 0 1 .32 3.18v9.45h-2.12v-8.77a16.42 16.42 0 0 0-.24-3 5.24 5.24 0 0 0-.82-2 3.2 3.2 0 0 0-1.51-1.12 6.77 6.77 0 0 0-2.33-.35 17.74 17.74 0 0 0-2.61.17 9 9 0 0 0-1.38.18v14.85h-2.12ZM356.44 118.57c.63-.17 1.48-.37 2.55-.59a19.88 19.88 0 0 1 3.93-.33 8.19 8.19 0 0 1 3.22.56 5 5 0 0 1 2.06 1.59 6.51 6.51 0 0 1 1.09 2.46 14.25 14.25 0 0 1 .33 3.18v9.45h-2.12v-8.77a16.33 16.33 0 0 0-.25-3 5.09 5.09 0 0 0-.82-2 3.18 3.18 0 0 0-1.5-1.12 6.79 6.79 0 0 0-2.34-.35 17.69 17.69 0 0 0-2.6.17 8.73 8.73 0 0 0-1.42.29v14.85h-2.13ZM389.47 126.45a11 11 0 0 1-.57 3.63 8.15 8.15 0 0 1-1.6 2.78 7.28 7.28 0 0 1-2.44 1.78 7.4 7.4 0 0 1-3.11.64 7.3 7.3 0 0 1-5.54-2.42 8 8 0 0 1-1.6-2.78 11.65 11.65 0 0 1 0-7.26 8.13 8.13 0 0 1 1.6-2.79 7.08 7.08 0 0 1 2.44-1.8 7.32 7.32 0 0 1 3.1-.64 7.4 7.4 0 0 1 3.11.64 7.08 7.08 0 0 1 2.44 1.8 8.29 8.29 0 0 1 1.6 2.79 11 11 0 0 1 .57 3.63Zm-2.26 0a8 8 0 0 0-1.47-5 5.17 5.17 0 0 0-8 0 9.39 9.39 0 0 0 0 10.09 5.21 5.21 0 0 0 8 0 8 8 0 0 0 1.47-5.09ZM399.2 132.6c.46-.94.93-2 1.41-3.22s.94-2.47 1.39-3.76.87-2.61 1.25-3.93.7-2.55 1-3.71h2.12c-.39 1.55-.83 3.07-1.32 4.58s-1 3-1.52 4.41-1.1 2.83-1.68 4.16-1.15 2.58-1.7 3.76h-2c-.57-1.18-1.14-2.43-1.71-3.76s-1.12-2.72-1.66-4.16-1-2.91-1.53-4.41-.93-3-1.32-4.58h2.26c.26 1.16.58 2.39 1 3.71s.79 2.63 1.24 3.93.92 2.55 1.4 3.76.91 2.28 1.37 3.22ZM414.91 117.59a7.65 7.65 0 0 1 2.83.47 4.89 4.89 0 0 1 1.88 1.31 5.24 5.24 0 0 1 1.05 2 9.3 9.3 0 0 1 .32 2.48v10.66a8.76 8.76 0 0 1-.95.22c-.41.07-.89.16-1.43.24s-1.16.16-1.82.22-1.35.08-2 .08a9.55 9.55 0 0 1-2.47-.3 5.24 5.24 0 0 1-2-.93 4.24 4.24 0 0 1-1.31-1.64 5.54 5.54 0 0 1-.48-2.43 4.89 4.89 0 0 1 .53-2.35 4.4 4.4 0 0 1 1.47-1.62 6.35 6.35 0 0 1 2.25-.93 12.78 12.78 0 0 1 2.85-.3h1c.37 0 .67.08 1 .13l.81.16a3.56 3.56 0 0 1 .48.15v-1a12 12 0 0 0-.13-1.71 3.75 3.75 0 0 0-.58-1.51 3.18 3.18 0 0 0-1.24-1.07 4.55 4.55 0 0 0-2.11-.41 10.68 10.68 0 0 0-2.78.26c-.61.17-1 .31-1.34.42l-.29-1.86a7.42 7.42 0 0 1 1.71-.49 14.18 14.18 0 0 1 2.75-.25Zm.2 15.76c.83 0 1.55 0 2.17-.08s1.15-.13 1.59-.21v-6a6.25 6.25 0 0 0-1.15-.35 10.05 10.05 0 0 0-2.15-.18 11.74 11.74 0 0 0-1.64.12 4.58 4.58 0 0 0-1.57.49 3.26 3.26 0 0 0-1.18 1 3 3 0 0 0-.46 1.73 3.65 3.65 0 0 0 .32 1.6 2.51 2.51 0 0 0 .88 1 4 4 0 0 0 1.37.57 8.37 8.37 0 0 0 1.82.31ZM428.41 118h6.74v1.8h-6.74v9a9.28 9.28 0 0 0 .25 2.34 3.3 3.3 0 0 0 .7 1.39 2.18 2.18 0 0 0 1.11.65 5.92 5.92 0 0 0 1.44.17 6.34 6.34 0 0 0 2.16-.31 9.61 9.61 0 0 0 1.28-.58l.52 1.77a7.6 7.6 0 0 1-1.6.67 8 8 0 0 1-2.49.38 7.45 7.45 0 0 1-2.63-.41 3.79 3.79 0 0 1-1.7-1.24 5 5 0 0 1-.9-2.08 14.79 14.79 0 0 1-.26-2.94V113l2.12-.39ZM441.69 112.88a1.55 1.55 0 0 1-.46 1.19 1.51 1.51 0 0 1-1.11.45 1.52 1.52 0 0 1-1.11-.45 1.77 1.77 0 0 1 0-2.38 1.52 1.52 0 0 1 1.11-.45 1.51 1.51 0 0 1 1.11.45 1.55 1.55 0 0 1 .46 1.19Zm-.49 22h-2.12V118h2.12ZM461.24 126.45a11 11 0 0 1-.57 3.63 8 8 0 0 1-1.6 2.78 7.3 7.3 0 0 1-5.54 2.42 7.36 7.36 0 0 1-3.11-.64 7.28 7.28 0 0 1-2.44-1.78 8.15 8.15 0 0 1-1.6-2.78 11.84 11.84 0 0 1 0-7.26A8.29 8.29 0 0 1 448 120a7.08 7.08 0 0 1 2.44-1.8 7.85 7.85 0 0 1 6.21 0 7.08 7.08 0 0 1 2.44 1.8 8.13 8.13 0 0 1 1.6 2.79 11 11 0 0 1 .55 3.66Zm-2.25 0a8 8 0 0 0-1.47-5 5.17 5.17 0 0 0-8 0 9.39 9.39 0 0 0 0 10.09 5.21 5.21 0 0 0 8 0 8 8 0 0 0 1.48-5.09ZM465.85 118.57c.64-.17 1.49-.37 2.56-.59a19.71 19.71 0 0 1 3.92-.33 8.15 8.15 0 0 1 3.22.56 4.92 4.92 0 0 1 2.06 1.59 6.52 6.52 0 0 1 1.1 2.46 14.89 14.89 0 0 1 .32 3.18v9.45h-2.12v-8.77a15.52 15.52 0 0 0-.25-3 5 5 0 0 0-.82-2 3.18 3.18 0 0 0-1.5-1.12 6.79 6.79 0 0 0-2.34-.35 17.69 17.69 0 0 0-2.6.17 9 9 0 0 0-1.4.18v14.85h-2.13ZM487.93 133.38a6.68 6.68 0 0 0 3-.6 2.12 2.12 0 0 0 1.2-2.05 2.78 2.78 0 0 0-.22-1.17 2.32 2.32 0 0 0-.7-.89 6.28 6.28 0 0 0-1.29-.75l-2-.85c-.63-.26-1.23-.53-1.8-.8a7 7 0 0 1-1.5-1 4.09 4.09 0 0 1-1.05-1.29 3.93 3.93 0 0 1-.39-1.83 4.14 4.14 0 0 1 1.55-3.34 6.55 6.55 0 0 1 4.27-1.27 11.94 11.94 0 0 1 2.86.29 9.84 9.84 0 0 1 1.59.53l-.45 1.94c-.27-.13-.71-.3-1.33-.52a8.61 8.61 0 0 0-2.73-.33 6 6 0 0 0-1.36.15 3.52 3.52 0 0 0-1.12.46 2.56 2.56 0 0 0-.79.78 2.25 2.25 0 0 0-.29 1.17 2.42 2.42 0 0 0 .26 1.18 2.62 2.62 0 0 0 .77.87 6.76 6.76 0 0 0 1.24.7l1.68.72c.66.26 1.28.52 1.88.79a7 7 0 0 1 1.59 1 4.47 4.47 0 0 1 1.11 1.37 4.22 4.22 0 0 1 .43 2 3.91 3.91 0 0 1-1.72 3.46 8.14 8.14 0 0 1-4.69 1.18 11.72 11.72 0 0 1-3.4-.38 12.87 12.87 0 0 1-1.57-.57l.55-1.93a3.08 3.08 0 0 0 .43.22c.22.09.51.2.88.32a8.48 8.48 0 0 0 1.33.31 10.37 10.37 0 0 0 1.78.13Z"/></svg>